<mxfile host="app.diagrams.net" agent="Mozilla/5.0 (Windows NT 10.0; Win64; x64) AppleWebKit/537.36 (KHTML, like Gecko) Chrome/129.0.0.0 Safari/537.36" version="24.8.0">
  <diagram name="Página-1" id="QHNUnMwvErE9_-hjAU6X">
    <mxGraphModel dx="874" dy="468" grid="1" gridSize="10" guides="1" tooltips="1" connect="1" arrows="1" fold="1" page="1" pageScale="1" pageWidth="827" pageHeight="1169" math="0" shadow="0">
      <root>
        <mxCell id="0" />
        <mxCell id="1" parent="0" />
        <mxCell id="IM5ujPKIXsdQfhXpKx9R-6" value="" style="edgeStyle=orthogonalEdgeStyle;rounded=0;orthogonalLoop=1;jettySize=auto;html=1;" parent="1" source="IM5ujPKIXsdQfhXpKx9R-2" edge="1">
          <mxGeometry relative="1" as="geometry">
            <Array as="points">
              <mxPoint x="100" y="80" />
              <mxPoint x="100" y="80" />
            </Array>
            <mxPoint x="100" y="100" as="targetPoint" />
          </mxGeometry>
        </mxCell>
        <mxCell id="lkzwZg_bybgsmOMzn8Zf-12" style="edgeStyle=orthogonalEdgeStyle;rounded=0;orthogonalLoop=1;jettySize=auto;html=1;exitX=1;exitY=0.5;exitDx=0;exitDy=0;" edge="1" parent="1" source="IM5ujPKIXsdQfhXpKx9R-2" target="lkzwZg_bybgsmOMzn8Zf-13">
          <mxGeometry relative="1" as="geometry">
            <mxPoint x="360" y="600" as="targetPoint" />
          </mxGeometry>
        </mxCell>
        <mxCell id="IM5ujPKIXsdQfhXpKx9R-2" value="&lt;font style=&quot;font-size: 14px;&quot;&gt;INÍCIO&lt;/font&gt;" style="ellipse;whiteSpace=wrap;html=1;" parent="1" vertex="1">
          <mxGeometry x="30" y="20" width="150" height="40" as="geometry" />
        </mxCell>
        <mxCell id="lkzwZg_bybgsmOMzn8Zf-17" style="rounded=0;orthogonalLoop=1;jettySize=auto;html=1;edgeStyle=orthogonalEdgeStyle;entryX=0.5;entryY=1;entryDx=0;entryDy=0;" edge="1" parent="1" source="IM5ujPKIXsdQfhXpKx9R-3" target="lkzwZg_bybgsmOMzn8Zf-13">
          <mxGeometry relative="1" as="geometry">
            <mxPoint x="360" y="630" as="targetPoint" />
          </mxGeometry>
        </mxCell>
        <mxCell id="IM5ujPKIXsdQfhXpKx9R-3" value="&lt;font style=&quot;font-size: 14px;&quot;&gt;FIM&lt;/font&gt;" style="ellipse;whiteSpace=wrap;html=1;" parent="1" vertex="1">
          <mxGeometry x="44.16" y="610" width="155.84" height="40" as="geometry" />
        </mxCell>
        <mxCell id="IM5ujPKIXsdQfhXpKx9R-17" value="" style="edgeStyle=orthogonalEdgeStyle;rounded=0;orthogonalLoop=1;jettySize=auto;html=1;" parent="1" source="IM5ujPKIXsdQfhXpKx9R-4" target="IM5ujPKIXsdQfhXpKx9R-9" edge="1">
          <mxGeometry relative="1" as="geometry">
            <Array as="points">
              <mxPoint x="105" y="170" />
              <mxPoint x="105" y="170" />
            </Array>
          </mxGeometry>
        </mxCell>
        <mxCell id="IM5ujPKIXsdQfhXpKx9R-4" value="&lt;font style=&quot;font-size: 9px;&quot;&gt;LEITURA VARIÁVEL LETRA&lt;/font&gt;" style="html=1;strokeWidth=2;shape=manualInput;whiteSpace=wrap;rounded=1;size=26;arcSize=11;" parent="1" vertex="1">
          <mxGeometry x="50" y="90" width="120" height="60" as="geometry" />
        </mxCell>
        <mxCell id="IM5ujPKIXsdQfhXpKx9R-23" value="" style="edgeStyle=orthogonalEdgeStyle;rounded=0;orthogonalLoop=1;jettySize=auto;html=1;" parent="1" source="IM5ujPKIXsdQfhXpKx9R-7" target="IM5ujPKIXsdQfhXpKx9R-10" edge="1">
          <mxGeometry relative="1" as="geometry" />
        </mxCell>
        <mxCell id="IM5ujPKIXsdQfhXpKx9R-28" value="" style="edgeStyle=orthogonalEdgeStyle;rounded=0;orthogonalLoop=1;jettySize=auto;html=1;" parent="1" source="IM5ujPKIXsdQfhXpKx9R-7" edge="1">
          <mxGeometry relative="1" as="geometry">
            <mxPoint x="210" y="435" as="targetPoint" />
          </mxGeometry>
        </mxCell>
        <mxCell id="IM5ujPKIXsdQfhXpKx9R-7" value="SE LETRA == D&amp;nbsp;" style="html=1;whiteSpace=wrap;aspect=fixed;shape=isoRectangle;" parent="1" vertex="1">
          <mxGeometry x="46.66" y="400" width="116.67" height="70" as="geometry" />
        </mxCell>
        <mxCell id="IM5ujPKIXsdQfhXpKx9R-22" value="" style="edgeStyle=orthogonalEdgeStyle;rounded=0;orthogonalLoop=1;jettySize=auto;html=1;" parent="1" source="IM5ujPKIXsdQfhXpKx9R-8" target="IM5ujPKIXsdQfhXpKx9R-7" edge="1">
          <mxGeometry relative="1" as="geometry" />
        </mxCell>
        <mxCell id="IM5ujPKIXsdQfhXpKx9R-27" value="" style="edgeStyle=orthogonalEdgeStyle;rounded=0;orthogonalLoop=1;jettySize=auto;html=1;" parent="1" source="IM5ujPKIXsdQfhXpKx9R-8" target="IM5ujPKIXsdQfhXpKx9R-14" edge="1">
          <mxGeometry relative="1" as="geometry" />
        </mxCell>
        <mxCell id="IM5ujPKIXsdQfhXpKx9R-8" value="SE LETRA == C&amp;nbsp;" style="html=1;whiteSpace=wrap;aspect=fixed;shape=isoRectangle;" parent="1" vertex="1">
          <mxGeometry x="44.16" y="300" width="116.67" height="70" as="geometry" />
        </mxCell>
        <mxCell id="IM5ujPKIXsdQfhXpKx9R-21" value="" style="edgeStyle=orthogonalEdgeStyle;rounded=0;orthogonalLoop=1;jettySize=auto;html=1;" parent="1" source="IM5ujPKIXsdQfhXpKx9R-9" target="IM5ujPKIXsdQfhXpKx9R-8" edge="1">
          <mxGeometry relative="1" as="geometry" />
        </mxCell>
        <mxCell id="IM5ujPKIXsdQfhXpKx9R-26" value="" style="edgeStyle=orthogonalEdgeStyle;rounded=0;orthogonalLoop=1;jettySize=auto;html=1;" parent="1" source="IM5ujPKIXsdQfhXpKx9R-9" target="IM5ujPKIXsdQfhXpKx9R-13" edge="1">
          <mxGeometry relative="1" as="geometry" />
        </mxCell>
        <mxCell id="IM5ujPKIXsdQfhXpKx9R-9" value="SE LETRA == S&amp;nbsp;" style="html=1;whiteSpace=wrap;aspect=fixed;shape=isoRectangle;" parent="1" vertex="1">
          <mxGeometry x="46.66" y="200" width="116.67" height="70" as="geometry" />
        </mxCell>
        <mxCell id="IM5ujPKIXsdQfhXpKx9R-29" value="" style="edgeStyle=orthogonalEdgeStyle;rounded=0;orthogonalLoop=1;jettySize=auto;html=1;" parent="1" source="IM5ujPKIXsdQfhXpKx9R-10" target="IM5ujPKIXsdQfhXpKx9R-16" edge="1">
          <mxGeometry relative="1" as="geometry" />
        </mxCell>
        <mxCell id="lkzwZg_bybgsmOMzn8Zf-1" value="" style="edgeStyle=orthogonalEdgeStyle;rounded=0;orthogonalLoop=1;jettySize=auto;html=1;" edge="1" parent="1" source="IM5ujPKIXsdQfhXpKx9R-10" target="IM5ujPKIXsdQfhXpKx9R-3">
          <mxGeometry relative="1" as="geometry" />
        </mxCell>
        <mxCell id="IM5ujPKIXsdQfhXpKx9R-10" value="SE LETRA == V" style="html=1;whiteSpace=wrap;aspect=fixed;shape=isoRectangle;" parent="1" vertex="1">
          <mxGeometry x="46.66" y="510" width="116.67" height="70" as="geometry" />
        </mxCell>
        <mxCell id="IM5ujPKIXsdQfhXpKx9R-13" value="IMPRIMA SOLTEIRO" style="shape=display;whiteSpace=wrap;html=1;" parent="1" vertex="1">
          <mxGeometry x="200" y="215" width="80" height="40" as="geometry" />
        </mxCell>
        <mxCell id="lkzwZg_bybgsmOMzn8Zf-30" style="edgeStyle=orthogonalEdgeStyle;rounded=0;orthogonalLoop=1;jettySize=auto;html=1;exitX=1;exitY=0.5;exitDx=0;exitDy=0;exitPerimeter=0;" edge="1" parent="1" source="IM5ujPKIXsdQfhXpKx9R-14">
          <mxGeometry relative="1" as="geometry">
            <mxPoint x="360" y="335.28571428571433" as="targetPoint" />
          </mxGeometry>
        </mxCell>
        <mxCell id="IM5ujPKIXsdQfhXpKx9R-14" value="IMPRIMA CASADO" style="shape=display;whiteSpace=wrap;html=1;" parent="1" vertex="1">
          <mxGeometry x="210" y="315" width="80" height="40" as="geometry" />
        </mxCell>
        <mxCell id="lkzwZg_bybgsmOMzn8Zf-27" style="edgeStyle=orthogonalEdgeStyle;rounded=0;orthogonalLoop=1;jettySize=auto;html=1;entryX=1;entryY=0.5;entryDx=0;entryDy=0;" edge="1" parent="1" source="IM5ujPKIXsdQfhXpKx9R-15" target="lkzwZg_bybgsmOMzn8Zf-13">
          <mxGeometry relative="1" as="geometry" />
        </mxCell>
        <mxCell id="IM5ujPKIXsdQfhXpKx9R-15" value="&lt;font style=&quot;font-size: 10px;&quot;&gt;IMPRIMA DIVORCIADO&lt;/font&gt;" style="shape=display;whiteSpace=wrap;html=1;" parent="1" vertex="1">
          <mxGeometry x="210" y="415" width="90" height="40" as="geometry" />
        </mxCell>
        <mxCell id="lkzwZg_bybgsmOMzn8Zf-18" value="" style="edgeStyle=none;rounded=0;orthogonalLoop=1;jettySize=auto;html=1;entryX=0.071;entryY=0.264;entryDx=0;entryDy=0;entryPerimeter=0;" edge="1" parent="1" source="IM5ujPKIXsdQfhXpKx9R-16" target="lkzwZg_bybgsmOMzn8Zf-13">
          <mxGeometry relative="1" as="geometry" />
        </mxCell>
        <mxCell id="IM5ujPKIXsdQfhXpKx9R-16" value="IMPRIMA VIÚVO" style="shape=display;whiteSpace=wrap;html=1;" parent="1" vertex="1">
          <mxGeometry x="210" y="525" width="80" height="40" as="geometry" />
        </mxCell>
        <mxCell id="lkzwZg_bybgsmOMzn8Zf-2" value="V" style="text;html=1;align=center;verticalAlign=middle;resizable=0;points=[];autosize=1;strokeColor=none;fillColor=none;" vertex="1" parent="1">
          <mxGeometry x="165" y="208" width="30" height="30" as="geometry" />
        </mxCell>
        <mxCell id="lkzwZg_bybgsmOMzn8Zf-3" value="V" style="text;html=1;align=center;verticalAlign=middle;resizable=0;points=[];autosize=1;strokeColor=none;fillColor=none;" vertex="1" parent="1">
          <mxGeometry x="165" y="298" width="30" height="30" as="geometry" />
        </mxCell>
        <mxCell id="lkzwZg_bybgsmOMzn8Zf-4" value="V" style="text;html=1;align=center;verticalAlign=middle;resizable=0;points=[];autosize=1;strokeColor=none;fillColor=none;" vertex="1" parent="1">
          <mxGeometry x="170" y="410" width="30" height="30" as="geometry" />
        </mxCell>
        <mxCell id="lkzwZg_bybgsmOMzn8Zf-5" value="V" style="text;html=1;align=center;verticalAlign=middle;resizable=0;points=[];autosize=1;strokeColor=none;fillColor=none;" vertex="1" parent="1">
          <mxGeometry x="165" y="518" width="30" height="30" as="geometry" />
        </mxCell>
        <mxCell id="lkzwZg_bybgsmOMzn8Zf-6" value="F" style="text;html=1;align=center;verticalAlign=middle;resizable=0;points=[];autosize=1;strokeColor=none;fillColor=none;" vertex="1" parent="1">
          <mxGeometry x="105" y="468" width="30" height="30" as="geometry" />
        </mxCell>
        <mxCell id="lkzwZg_bybgsmOMzn8Zf-7" value="F" style="text;html=1;align=center;verticalAlign=middle;resizable=0;points=[];autosize=1;strokeColor=none;fillColor=none;" vertex="1" parent="1">
          <mxGeometry x="105" y="358" width="30" height="30" as="geometry" />
        </mxCell>
        <mxCell id="lkzwZg_bybgsmOMzn8Zf-9" value="F" style="text;html=1;align=center;verticalAlign=middle;resizable=0;points=[];autosize=1;strokeColor=none;fillColor=none;" vertex="1" parent="1">
          <mxGeometry x="105" y="268" width="30" height="30" as="geometry" />
        </mxCell>
        <mxCell id="lkzwZg_bybgsmOMzn8Zf-13" value="" style="ellipse;whiteSpace=wrap;html=1;aspect=fixed;" vertex="1" parent="1">
          <mxGeometry x="330" y="530" width="50" height="50" as="geometry" />
        </mxCell>
        <mxCell id="lkzwZg_bybgsmOMzn8Zf-31" style="edgeStyle=orthogonalEdgeStyle;rounded=0;orthogonalLoop=1;jettySize=auto;html=1;exitX=0.984;exitY=0.679;exitDx=0;exitDy=0;exitPerimeter=0;" edge="1" parent="1" source="IM5ujPKIXsdQfhXpKx9R-13">
          <mxGeometry relative="1" as="geometry">
            <mxPoint x="360" y="240" as="targetPoint" />
            <mxPoint x="290" y="240" as="sourcePoint" />
            <Array as="points">
              <mxPoint x="279" y="240" />
            </Array>
          </mxGeometry>
        </mxCell>
        <mxCell id="lkzwZg_bybgsmOMzn8Zf-33" value="F" style="text;html=1;align=center;verticalAlign=middle;resizable=0;points=[];autosize=1;strokeColor=none;fillColor=none;" vertex="1" parent="1">
          <mxGeometry x="105" y="158" width="30" height="30" as="geometry" />
        </mxCell>
      </root>
    </mxGraphModel>
  </diagram>
</mxfile>
